<svg width="145" height="147" viewBox="0 0 145 147" fill="none" xmlns="http://www.w3.org/2000/svg">
<path d="M95.6818 33.0904C93.0347 30.7702 90.8607 29.6095 89.1599 29.6081C87.5118 29.5465 85.8177 30.5084 84.0776 32.4938L69.3659 49.2791C66.0439 53.0693 62.8662 55.1777 59.833 55.6041C56.7998 56.0306 53.2896 55.2412 49.3026 53.2361C51.8511 56.6398 53.1164 59.9296 53.0987 63.1055C53.1338 66.2212 51.4903 69.6741 48.1683 73.4644L33.4566 90.2497C31.7165 92.2351 30.985 94.0406 31.2621 95.6664C31.5466 97.4051 32.9824 99.4082 35.5694 101.676L26.8689 111.602C21.5746 106.962 17.9544 102.779 16.0083 99.0517C14.0095 95.385 13.3877 91.9678 14.1429 88.8C14.8453 85.6925 16.6994 82.4241 19.705 78.9948L33.8631 62.8412C36.2359 60.1339 37.4758 57.8696 37.5827 56.0485C37.7497 54.2801 36.6901 52.394 34.404 50.3902L44.6073 38.7488C46.8935 40.7526 48.9022 41.5557 50.6334 41.1583C52.4776 40.7534 54.5861 39.1973 56.9589 36.49L71.117 20.3364C74.1754 16.847 77.1989 14.5504 80.1875 13.4466C83.2289 12.2826 86.6981 12.451 90.5952 13.9519C94.4923 15.4528 99.088 18.5233 104.382 23.1636L95.6818 33.0904ZM118.778 35.7811C124.073 40.4214 127.689 44.5485 129.628 48.1625C131.627 51.8292 132.248 55.2464 131.493 58.4141C130.791 61.5217 128.91 64.8202 125.852 68.3096L111.694 84.4632C109.321 87.1705 108.055 89.4649 107.895 91.3462C107.788 93.1673 108.848 95.0534 111.074 97.0044L100.871 108.646C98.6445 106.695 96.6358 105.892 94.8444 106.236C93.053 106.581 90.9709 108.107 88.598 110.814L74.4399 126.968C71.4343 130.397 68.4372 132.664 65.4485 133.768C62.4071 134.932 58.9379 134.763 55.0408 133.262C51.1511 131.874 46.5591 128.86 41.2648 124.22L49.9653 114.293C52.5523 116.561 54.6962 117.695 56.397 117.696C58.0451 117.758 59.7392 116.796 61.4793 114.811L76.1911 98.0253C79.4603 94.2953 82.6681 92.2133 85.8142 91.7794C88.9603 91.3455 92.4177 92.195 96.1863 94.328C93.6758 90.6382 92.4331 87.2619 92.4582 84.1989C92.4833 81.136 94.1569 77.7094 97.4789 73.9191L112.191 57.1338C113.931 55.1485 114.662 53.3429 114.385 51.7171C114.161 50.0311 112.725 48.0281 110.078 45.7079L118.778 35.7811Z" fill="#C0D5F4"/>
</svg>
