<svg width="638" height="222" viewBox="0 0 638 222" fill="none" xmlns="http://www.w3.org/2000/svg">
<path d="M23.3563 166.562H10.7V181.031H21.5125V187.375H10.7V209H3.38751V160.094H23.3563V166.562ZM58.3813 204.531C58.3813 207.51 56.8813 209 53.8813 209H38.35C35.3917 209 33.9125 207.51 33.9125 204.531V160.094H41.225V202.719H51.0688V160.094H58.3813V204.531ZM89.9063 209H70.6875V160.094H78V202.469H89.9063V209ZM119.869 209H100.65V160.094H107.963V202.469H119.869V209ZM173.638 204.531C173.638 207.51 172.158 209 169.2 209H154.481C151.544 209 150.075 207.51 150.075 204.531V192.875H157.388V202.844H166.325V193.25L151.669 179.375C150.606 178.354 150.075 177.052 150.075 175.469V164.594C150.075 161.594 151.544 160.094 154.481 160.094H169.2C172.158 160.094 173.638 161.573 173.638 164.531V175.469H166.325V166.25H157.388V175.094L172.044 188.906C173.106 189.906 173.638 191.229 173.638 192.875V204.531ZM207.1 166.562H199.038V209H191.756V166.562H183.694V160.094H207.1V166.562ZM242.031 209H234.781L233.313 199.719H224.156L222.688 209H215.469V208.875L224.938 160.031H232.625L242.031 209ZM232.281 193.438L228.719 171.375L225.125 193.438H232.281ZM276.588 204.531C276.588 207.51 275.098 209 272.119 209H256.869C253.973 209 252.525 207.51 252.525 204.531V164.594C252.525 161.594 253.973 160.094 256.869 160.094H272.119C275.098 160.094 276.588 161.594 276.588 164.594V176.031H269.306V166.375H259.838V202.719H269.306V192.438H276.588V204.531ZM313.394 209H305.331L296.05 187.188V209H288.738V160.094H296.05V180.781L304.175 160.094H312.175V160.438L302.238 183.656L313.394 209ZM366.725 199.781C366.725 202.656 365.871 204.917 364.163 206.562C362.454 208.188 360.152 209 357.256 209H342.35V160.094H357.256C360.152 160.094 362.454 160.927 364.163 162.594C365.871 164.24 366.725 166.5 366.725 169.375V199.781ZM359.381 198.562V170.469C359.381 167.74 357.954 166.375 355.1 166.375H349.663V202.719H354.913C357.892 202.719 359.381 201.333 359.381 198.562ZM399.094 209H378.812V160.094H398.906V166.562H386.125V180.844H397.125V187.188H386.125V202.531H399.094V209ZM434.869 160.094L425.494 209.062H418.213L408.869 160.094H416.213L421.681 193.625C421.723 194.583 421.785 195.979 421.869 197.812C421.848 196.854 421.91 195.458 422.056 193.625L427.556 160.094H434.869ZM465.706 209H445.425V160.094H465.519V166.562H452.738V180.844H463.738V187.188H452.738V202.531H465.706V209ZM496.356 209H477.138V160.094H484.45V202.469H496.356V209ZM531.756 204.531C531.756 207.51 530.277 209 527.319 209H511.444C508.548 209 507.1 207.51 507.1 204.531V164.594C507.1 161.594 508.548 160.094 511.444 160.094H527.319C530.277 160.094 531.756 161.594 531.756 164.594V204.531ZM524.444 202.719V166.375H514.413V202.719H524.444ZM567.688 186.719C567.688 189.76 566.198 191.281 563.219 191.281H551.375V209H544.062V160.094H563.219C566.198 160.094 567.688 161.594 567.688 164.594V186.719ZM560.312 185V166.375H551.375V185H560.312ZM599.556 209H579.275V160.094H599.369V166.562H586.588V180.844H597.588V187.188H586.588V202.531H599.556V209ZM636.019 209H628.394L620.331 186.281C620.331 186.281 620.331 184.812 620.331 181.875H627.519V166.375H618.3V209H610.987V160.094H630.394C633.331 160.094 634.8 161.594 634.8 164.594V182.375C634.8 184.438 634.102 185.771 632.706 186.375C631.956 186.688 630.373 186.844 627.956 186.844L636.019 209Z" fill="#595959"/>
<path d="M89.8125 89.2969C89.8125 93.7656 87.5938 96 83.1562 96H61.0781C56.6719 96 54.4688 93.7656 54.4688 89.2969V71.8125H65.4375V86.7656H78.8438V72.375L56.8594 51.5625C55.2656 50.0312 54.4688 48.0781 54.4688 45.7031V29.3906C54.4688 24.8906 56.6719 22.6406 61.0781 22.6406H83.1562C87.5938 22.6406 89.8125 24.8594 89.8125 29.2969V45.7031H78.8438V31.875H65.4375V45.1406L87.4219 65.8594C89.0156 67.3594 89.8125 69.3438 89.8125 71.8125V89.2969ZM119.287 96H108.319V22.6406H119.287V96ZM182.231 96H171.684V59.8125C171.684 57.9062 171.903 55.25 172.341 51.8438L162.872 89.2969H157.294L147.778 51.8438C148.216 55.3125 148.434 57.9688 148.434 59.8125V96H137.887V22.6406H148.247L159.778 63.1875C159.903 63.625 159.997 64.7344 160.059 66.5156C160.059 65.7344 160.153 64.625 160.341 63.1875L171.872 22.6406H182.231V96ZM237.816 96H226.941L224.738 82.0781H211.003L208.8 96H197.972V95.8125L212.175 22.5469H223.706L237.816 96ZM223.191 72.6562L217.847 39.5625L212.456 72.6562H223.191ZM229.613 14.9062C229.613 17.8438 228.144 19.3125 225.206 19.3125C223.581 19.3125 221.347 18.7656 218.503 17.6719C216.409 16.7969 214.316 15.9375 212.222 15.0938V19.2188H204.863V11.8125C204.863 8.875 206.331 7.40625 209.269 7.40625C210.956 7.40625 213.159 7.9375 215.878 9C217.972 9.875 220.097 10.75 222.253 11.625V7.5H229.613V14.9062ZM290.541 89.2969C290.541 93.7656 288.322 96 283.884 96H260.072C255.728 96 253.556 93.7656 253.556 89.2969V29.3906C253.556 24.8906 255.728 22.6406 260.072 22.6406H283.884C288.322 22.6406 290.541 24.8906 290.541 29.3906V89.2969ZM279.572 86.5781V32.0625H264.525V86.5781H279.572ZM373.819 62.5781C373.819 67.1406 371.584 69.4219 367.116 69.4219H349.35V96H338.381V22.6406H367.116C371.584 22.6406 373.819 24.8906 373.819 29.3906V62.5781ZM362.756 60V32.0625H349.35V60H362.756ZM421.622 96H391.2V22.6406H421.341V32.3438H402.169V53.7656H418.669V63.2812H402.169V86.2969H421.622V96ZM475.331 82.1719C475.331 86.4844 474.05 89.875 471.487 92.3438C468.925 94.7812 465.472 96 461.128 96H438.769V22.6406H461.128C465.472 22.6406 468.925 23.8906 471.487 26.3906C474.05 28.8594 475.331 32.25 475.331 36.5625V82.1719ZM464.316 80.3438V38.2031C464.316 34.1094 462.175 32.0625 457.894 32.0625H449.737V86.5781H457.612C462.081 86.5781 464.316 84.5 464.316 80.3438ZM531.009 96H519.572L507.478 61.9219C507.478 61.9219 507.478 59.7188 507.478 55.3125H518.259V32.0625H504.431V96H493.462V22.6406H522.572C526.978 22.6406 529.181 24.8906 529.181 29.3906V56.0625C529.181 59.1562 528.134 61.1562 526.041 62.0625C524.916 62.5312 522.541 62.7656 518.916 62.7656L531.009 96ZM584.297 89.2969C584.297 93.7656 582.078 96 577.641 96H553.828C549.484 96 547.312 93.7656 547.312 89.2969V29.3906C547.312 24.8906 549.484 22.6406 553.828 22.6406H577.641C582.078 22.6406 584.297 24.8906 584.297 29.3906V89.2969ZM573.328 86.5781V32.0625H558.281V86.5781H573.328Z" fill="black"/>
<line x1="4.37114e-08" y1="129.5" x2="638" y2="129.5" stroke="black"/>
</svg>
